<svg xmlns="http://www.w3.org/2000/svg" width="27" height="35" fill="none"><g clip-path="url(#a)"><path fill="#666" d="M13.64.52 13.5.5 0 1.9v24.61l13.5 7.99L27 26.51V1.91L13.64.5Zm11.6 25L13.5 32.46 1.77 25.52v-10.1l11.68 6.93.02 1.25-8.02-4.75v1.23l8.04 4.8.02 1.3-8.05-4.76v1.22l8.04 4.81 8.12-4.83V17.4l3.62-2.15v10.26Zm0-11.57L22 15.83l-1.48.88-7.06-4.19-.01 1.23 6.04 3.57-.06.03-.13.07-.86.5-4.98-2.95-.01 1.22 3.93 2.33-.93.61-.02.01-2.97-1.74-.01 1.23 1.94 1.13-1.98 1.19L1.8 14.08l11.63-6.96 11.8 6.83Zm0-1.22L13.43 5.8 1.77 12.72V3.49L13.5 2.26 25.23 3.5v9.24Z"/></g><defs><clipPath id="a"><path fill="#fff" d="M0 .5h27v34H0z"/></clipPath></defs></svg>